<?xml version="1.0" encoding="utf-8"?>
<!-- Generator: Adobe Illustrator 28.2.0, SVG Export Plug-In . SVG Version: 6.00 Build 0)  -->
<svg version="1.1" id="Layer_1" xmlns="http://www.w3.org/2000/svg" xmlns:xlink="http://www.w3.org/1999/xlink" x="0px" y="0px"
	 viewBox="0 0 48 48" style="enable-background:new 0 0 48 48;" xml:space="preserve">
<style type="text/css">
	.st0{fill:#C9A027;}
	.st1{fill:none;stroke:#FFFFFF;stroke-width:2;stroke-linecap:round;stroke-linejoin:round;}
</style>
<path class="st0" d="M10,0h28c5.5,0,10,4.5,10,10v28c0,5.5-4.5,10-10,10H10C4.5,48,0,43.5,0,38V10C0,4.5,4.5,0,10,0z"/>
<path class="st1" d="M25.5,20.4c-0.6,0.4-1.3,0.6-2,0.6c-1.9,0-3.5-1.6-3.5-3.5s1.6-3.5,3.5-3.5c1.3,0,2.4,0.7,3,1.6 M18,32.1h2.6
	c0.3,0,0.7,0,1,0.1l2.8,0.7c0.6,0.1,1.2,0.2,1.8,0l3-0.6c0.8-0.2,1.5-0.5,2.1-1.1l2.2-2.1c0.6-0.6,0.6-1.6,0-2.2
	c-0.6-0.5-1.4-0.6-2.1-0.1L29,28.6c-0.4,0.3-0.8,0.4-1.2,0.4h-2.4h1.5c0.9,0,1.6-0.7,1.6-1.5v-0.3c0-0.7-0.5-1.3-1.2-1.5l-2.4-0.6
	C24.4,25,24,25,23.6,25c-1,0-2.7,0.8-2.7,0.8L18,27 M32,18.5c0,1.9-1.6,3.5-3.5,3.5S25,20.4,25,18.5s1.6-3.5,3.5-3.5
	S32,16.6,32,18.5z M14,26.6v5.8c0,0.6,0,0.8,0.1,1.1c0.1,0.2,0.2,0.3,0.4,0.4C14.8,34,15,34,15.6,34h0.8c0.6,0,0.8,0,1.1-0.1
	c0.2-0.1,0.3-0.2,0.4-0.4C18,33.2,18,33,18,32.4v-5.8c0-0.6,0-0.8-0.1-1.1c-0.1-0.2-0.2-0.3-0.4-0.4C17.2,25,17,25,16.4,25h-0.8
	c-0.6,0-0.8,0-1.1,0.1c-0.2,0.1-0.3,0.2-0.4,0.4C14,25.8,14,26,14,26.6z"/>
</svg>
