<?xml version="1.0" encoding="utf-8"?>
<!-- Generator: Adobe Illustrator 28.2.0, SVG Export Plug-In . SVG Version: 6.00 Build 0)  -->
<svg version="1.1" id="Layer_1" xmlns="http://www.w3.org/2000/svg" xmlns:xlink="http://www.w3.org/1999/xlink" x="0px" y="0px"
	 viewBox="0 0 48 48" style="enable-background:new 0 0 48 48;" xml:space="preserve">
<style type="text/css">
	.st0{fill:#C9A027;}
	.st1{fill:none;stroke:#FFFFFF;stroke-width:1.5;stroke-linecap:round;stroke-linejoin:round;}
</style>
<path class="st0" d="M10,0h28c5.5,0,10,4.5,10,10v28c0,5.5-4.5,10-10,10H10C4.5,48,0,43.5,0,38V10C0,4.5,4.5,0,10,0z"/>
<path class="st1" d="M18.9,23.4v2.8 M18.9,23.4v-6.7c0-0.9,0.8-1.7,1.7-1.7s1.7,0.7,1.7,1.7 M18.9,23.4c0-0.9-0.8-1.7-1.7-1.7
	s-1.7,0.7-1.7,1.7v2.2c0,4.6,3.8,8.3,8.5,8.3s8.5-3.7,8.5-8.3v-5.6c0-0.9-0.8-1.7-1.7-1.7s-1.7,0.7-1.7,1.7 M22.3,16.8v6.1
	 M22.3,16.8v-1.1c0-0.9,0.8-1.7,1.7-1.7s1.7,0.7,1.7,1.7v1.1 M25.7,16.8v6.1 M25.7,16.8c0-0.9,0.8-1.7,1.7-1.7s1.7,0.7,1.7,1.7v3.3
	 M29.1,20.1v2.8"/>
</svg>
