<?xml version="1.0" encoding="utf-8"?>
<!-- Generator: Adobe Illustrator 28.2.0, SVG Export Plug-In . SVG Version: 6.00 Build 0)  -->
<svg version="1.1" id="Layer_1" xmlns="http://www.w3.org/2000/svg" xmlns:xlink="http://www.w3.org/1999/xlink" x="0px" y="0px"
	 viewBox="0 0 49 48" style="enable-background:new 0 0 49 48;" xml:space="preserve">
<style type="text/css">
	.st0{fill:#C9A027;}
	.st1{fill:none;stroke:#FFFFFF;stroke-width:1.5;stroke-linecap:round;stroke-linejoin:round;}
</style>
<path class="st0" d="M10.2,0h28.6C44.4,0,49,4.5,49,10v28c0,5.5-4.6,10-10.2,10H10.2C4.6,48,0,43.5,0,38V10C0,4.5,4.6,0,10.2,0z"/>
<path class="st1" d="M19,32.1h2.6c0.3,0,0.7,0,1,0.1l2.8,0.7c0.6,0.1,1.2,0.2,1.8,0l3-0.6c0.8-0.2,1.5-0.5,2.1-1.1l2.2-2.1
	c0.6-0.6,0.6-1.6,0-2.2c-0.6-0.5-1.4-0.6-2.1-0.1L30,28.6c-0.4,0.3-0.8,0.4-1.2,0.4h-2.4l1.5,0c0.9,0,1.6-0.7,1.6-1.5v-0.3
	c0-0.7-0.5-1.3-1.2-1.5l-2.4-0.6C25.4,25,25,25,24.6,25c-1,0-2.7,0.8-2.7,0.8L19,27 M15,26.6v5.8c0,0.6,0,0.8,0.1,1.1
	c0.1,0.2,0.2,0.3,0.4,0.4C15.8,34,16,34,16.6,34h0.8c0.6,0,0.8,0,1.1-0.1c0.2-0.1,0.3-0.2,0.4-0.4C19,33.2,19,33,19,32.4v-5.8
	c0-0.6,0-0.8-0.1-1.1c-0.1-0.2-0.2-0.3-0.4-0.4C18.2,25,18,25,17.4,25h-0.8c-0.6,0-0.8,0-1.1,0.1c-0.2,0.1-0.3,0.2-0.4,0.4
	C15,25.8,15,26,15,26.6z M30.2,15.6c-0.6-1.2-2-1.9-3.3-1.3c-1.3,0.6-1.9,2.2-1.3,3.5c0.3,0.8,1.3,2.4,2,3.5
	c0.3,0.4,0.4,0.6,0.6,0.7c0.2,0.1,0.4,0.2,0.6,0.2c0.2,0,0.4-0.1,0.9-0.3c1.2-0.6,2.8-1.5,3.5-2c1.1-0.9,1.4-2.5,0.6-3.7
	C32.8,14.9,31.3,14.8,30.2,15.6z"/>
</svg>
