<?xml version="1.0" encoding="utf-8"?>
<!-- Generator: Adobe Illustrator 28.2.0, SVG Export Plug-In . SVG Version: 6.00 Build 0)  -->
<svg version="1.1" id="Layer_1" xmlns="http://www.w3.org/2000/svg" xmlns:xlink="http://www.w3.org/1999/xlink" x="0px" y="0px"
	 viewBox="0 0 49 48" style="enable-background:new 0 0 49 48;" xml:space="preserve">
<style type="text/css">
	.st0{fill:#C9A027;}
	.st1{fill:none;stroke:#FFFFFF;stroke-width:1.5;stroke-linecap:round;stroke-linejoin:round;}
</style>
<path class="st0" d="M10.2,0h28.6C44.4,0,49,4.5,49,10v28c0,5.5-4.6,10-10.2,10H10.2C4.6,48,0,43.5,0,38V10C0,4.5,4.6,0,10.2,0z"/>
<path class="st1" d="M17,22v6c0,0.4,0,0.5,0.1,0.7c0,0.1,0.1,0.3,0.2,0.4c0.1,0.1,0.3,0.2,0.6,0.4l5.4,2.7c0.3,0.1,0.4,0.2,0.5,0.2
	c0.1,0,0.2,0,0.4,0c0.1,0,0.3-0.1,0.5-0.2l5.4-2.7c0.3-0.2,0.5-0.2,0.6-0.4c0.1-0.1,0.2-0.2,0.2-0.4C31,28.5,31,28.4,31,28v-6
	 M14,20.5l9.6-4.8c0.1-0.1,0.2-0.1,0.3-0.1c0.1,0,0.1,0,0.2,0c0.1,0,0.1,0,0.3,0.1l9.6,4.8l-9.6,4.8c-0.1,0.1-0.2,0.1-0.3,0.1
	c-0.1,0-0.1,0-0.2,0c-0.1,0-0.1,0-0.3-0.1L14,20.5z"/>
</svg>
