<?xml version="1.0" encoding="utf-8"?>
<!-- Generator: Adobe Illustrator 28.2.0, SVG Export Plug-In . SVG Version: 6.00 Build 0)  -->
<svg version="1.1" id="Layer_1" xmlns="http://www.w3.org/2000/svg" xmlns:xlink="http://www.w3.org/1999/xlink" x="0px" y="0px"
	 viewBox="0 0 48 48" style="enable-background:new 0 0 48 48;" xml:space="preserve">
<style type="text/css">
	.st0{fill:#C9A027;}
	.st1{fill:none;stroke:#FFFFFF;stroke-width:2;stroke-linecap:round;stroke-linejoin:round;}
</style>
<path class="st0" d="M10,0h28c5.5,0,10,4.5,10,10v28c0,5.5-4.5,10-10,10H10C4.5,48,0,43.5,0,38V10C0,4.5,4.5,0,10,0z"/>
<path class="st1" d="M19.1,23.2l-3.8-6.8c-0.4-0.8-0.7-1.2-0.6-1.5c0-0.3,0.2-0.5,0.4-0.7c0.3-0.2,0.7-0.2,1.6-0.2H19
	c0.3,0,0.5,0,0.6,0c0.1,0,0.3,0.1,0.4,0.2c0.1,0.1,0.2,0.2,0.4,0.5L24,21l3.7-6.2c0.2-0.3,0.3-0.4,0.4-0.5c0.1-0.1,0.2-0.2,0.4-0.2
	c0.1,0,0.3,0,0.6,0h2.2c0.9,0,1.3,0,1.6,0.2c0.2,0.2,0.4,0.4,0.4,0.7c0,0.3-0.2,0.7-0.6,1.5l-3.8,6.8 M22.5,26l1.5-1v5 M22.8,30h2.5
	 M28.6,22.9c2.5,2.5,2.5,6.7,0,9.2c-2.5,2.5-6.7,2.5-9.2,0c-2.5-2.5-2.5-6.7,0-9.2S26.1,20.4,28.6,22.9z"/>
</svg>
