<?xml version="1.0" encoding="utf-8"?>
<!-- Generator: Adobe Illustrator 28.2.0, SVG Export Plug-In . SVG Version: 6.00 Build 0)  -->
<svg version="1.1" id="Layer_1" xmlns="http://www.w3.org/2000/svg" xmlns:xlink="http://www.w3.org/1999/xlink" x="0px" y="0px"
	 viewBox="0 0 48 48" style="enable-background:new 0 0 48 48;" xml:space="preserve">
<style type="text/css">
	.st0{fill:#C9A027;}
	.st1{fill:none;stroke:#FFFFFF;stroke-width:2;stroke-linecap:round;stroke-linejoin:round;}
</style>
<path class="st0" d="M10,0h28c5.5,0,10,4.5,10,10v28c0,5.5-4.5,10-10,10H10C4.5,48,0,43.5,0,38V10C0,4.5,4.5,0,10,0z"/>
<path class="st1" d="M23.3,15.5c0.2-0.5,0.3-0.7,0.5-0.8c0.1-0.1,0.3-0.1,0.4,0c0.2,0.1,0.3,0.3,0.5,0.8l2.2,4.4
	c0.1,0.1,0.1,0.2,0.2,0.3c0,0,0.1,0.1,0.2,0.1c0.1,0,0.1,0,0.3,0.1l4.9,0.7c0.5,0.1,0.8,0.1,0.9,0.2c0.1,0.1,0.2,0.3,0.1,0.4
	c0,0.2-0.2,0.4-0.6,0.7l-3.5,3.4c-0.1,0.1-0.2,0.2-0.2,0.2c0,0.1-0.1,0.1-0.1,0.2c0,0.1,0,0.1,0,0.3l0.8,4.9c0.1,0.5,0.1,0.8,0,0.9
	c-0.1,0.1-0.2,0.2-0.3,0.3c-0.2,0-0.4-0.1-0.9-0.3L24.4,30c-0.1-0.1-0.2-0.1-0.3-0.1c-0.1,0-0.1,0-0.2,0c-0.1,0-0.1,0-0.3,0.1
	l-4.4,2.3c-0.5,0.2-0.7,0.4-0.9,0.3c-0.1,0-0.3-0.1-0.3-0.3c-0.1-0.2,0-0.4,0-0.9l0.8-4.9c0-0.2,0-0.2,0-0.3c0-0.1,0-0.1-0.1-0.2
	c0-0.1-0.1-0.1-0.2-0.2l-3.5-3.4c-0.4-0.4-0.6-0.5-0.6-0.7c0-0.1,0-0.3,0.1-0.4c0.1-0.1,0.4-0.2,0.9-0.2l4.9-0.7
	c0.2,0,0.2,0,0.3-0.1c0.1,0,0.1-0.1,0.2-0.1c0-0.1,0.1-0.1,0.2-0.3L23.3,15.5z"/>
</svg>
